<svg width="88" height="27" viewBox="0 0 88 27" fill="none" xmlns="http://www.w3.org/2000/svg">
<path d="M16 25.78C14.4 25.78 12.8333 25.68 11.3 25.48C9.76667 25.2933 8.32667 24.9733 6.98 24.52C5.64667 24.0667 4.47333 23.4467 3.46 22.66C2.44667 21.8867 1.64667 20.9133 1.06 19.74C0.486667 18.5667 0.2 17.16 0.2 15.52C0.2 13.6933 0.513333 12.0933 1.14 10.72C1.78 9.33333 2.7 8.25333 3.9 7.48C5.1 6.70667 6.55333 6.32 8.26 6.32C8.95333 6.32 9.71333 6.38 10.54 6.5C11.3667 6.62 12.14 6.9 12.86 7.34C12.6067 6.98 12.3133 6.67333 11.98 6.42C11.66 6.15333 11.2733 5.93333 10.82 5.76C10.86 5 10.9733 4.37333 11.16 3.88C11.9067 3.90667 12.8467 3.94667 13.98 4C15.1267 4.04 16.3733 4.06 17.72 4.06C19.4667 4.06 21.0667 4.03333 22.52 3.98C23.9733 3.91333 25.2267 3.84667 26.28 3.78C27.3467 3.7 28.16 3.63333 28.72 3.58C28.8533 3.91333 28.9533 4.34 29.02 4.86C29.0867 5.36667 29.12 5.9 29.12 6.46C29.1333 7.00667 29.12 7.51333 29.08 7.98C29.0533 8.43333 29 8.78 28.92 9.02C28.4267 9.03333 27.92 9.03333 27.4 9.02C26.8933 9.00667 26.3333 8.99333 25.72 8.98C25.1067 8.95333 24.3933 8.94 23.58 8.94V9.5C25.18 9.5 26.5733 9.68 27.76 10.04C28.9467 10.3867 29.8667 11 30.52 11.88C31.1733 12.7467 31.5 13.96 31.5 15.52C31.5 16.9733 31.24 18.26 30.72 19.38C30.2 20.5 29.46 21.46 28.5 22.26C27.5533 23.0733 26.4333 23.74 25.14 24.26C23.8467 24.78 22.4267 25.16 20.88 25.4C19.3333 25.6533 17.7067 25.78 16 25.78ZM15.76 18.98C16.5067 18.98 17.26 18.9467 18.02 18.88C18.7933 18.8267 19.5267 18.7067 20.22 18.52C20.9133 18.3467 21.5333 18.08 22.08 17.72C22.6267 17.36 23.0533 16.8867 23.36 16.3C23.68 15.7133 23.84 14.9867 23.84 14.12H23.2C23.2 15.08 22.9533 15.8733 22.46 16.5C21.98 17.1133 21.1933 17.5733 20.1 17.88C19.0067 18.1867 17.5533 18.34 15.74 18.34C13.38 18.34 11.5867 17.9933 10.36 17.3C9.14667 16.6067 8.54 15.5 8.54 13.98C8.54 13.1267 8.68667 12.4067 8.98 11.82C9.27333 11.2333 9.64 10.76 10.08 10.4C10.5333 10.04 10.9867 9.76667 11.44 9.58C11.9067 9.39333 12.3067 9.27333 12.64 9.22L12.54 8.64C11.6067 8.78667 10.7867 9.1 10.08 9.58C9.37333 10.06 8.82 10.68 8.42 11.44C8.03333 12.1867 7.84 13.0333 7.84 13.98C7.84 15.7 8.5 16.9667 9.82 17.78C11.14 18.58 13.12 18.98 15.76 18.98ZM17.32 9.58H18.36V8.74H17.32V9.58ZM17.32 12.04H18.36V10.92H17.32V12.04ZM31.1206 26.84C30.854 26.28 30.6673 25.74 30.5606 25.22C30.454 24.7133 30.4006 24.2133 30.4006 23.72C30.4006 22.4267 30.6406 21.4267 31.1206 20.72C31.6006 20.0133 32.314 19.5133 33.2606 19.22C34.2073 18.94 35.3806 18.8 36.7806 18.8C37.3806 18.8 38.0073 18.8067 38.6606 18.82C39.3273 18.8333 39.974 18.8467 40.6006 18.86C41.2273 18.8867 41.774 18.9 42.2406 18.9C43.7873 18.9 45.0273 18.68 45.9606 18.24C46.894 17.8 47.5673 17.1467 47.9806 16.28C48.394 15.4 48.6006 14.3 48.6006 12.98V9.48H47.8606V12.98C47.8606 14.2867 47.6606 15.3267 47.2606 16.1C46.874 16.86 46.3006 17.4067 45.5406 17.74C44.794 18.0733 43.8673 18.24 42.7606 18.24C42.2806 18.24 41.9006 18.2267 41.6206 18.2C41.354 18.1867 41.0273 18.16 40.6406 18.12V9.8H39.9006V18.14C38.434 18.22 37.0206 18.2467 35.6606 18.22C34.3006 18.2067 33.0873 18.1733 32.0206 18.12C32.034 17.1867 32.034 16.34 32.0206 15.58C32.0073 14.82 31.9873 14.1 31.9606 13.42C31.934 12.74 31.9073 12.06 31.8806 11.38C31.854 10.7 31.8406 9.98 31.8406 9.22C31.8406 8.00667 32.0473 6.97333 32.4606 6.12C32.8873 5.25333 33.5606 4.59333 34.4806 4.14C35.414 3.67333 36.6273 3.44 38.1206 3.44C39.0806 3.44 39.9606 3.56667 40.7606 3.82C41.574 4.06 42.2606 4.44 42.8206 4.96C43.3806 5.46667 43.7606 6.11333 43.9606 6.9L44.5206 6.7C44.3206 6.00667 43.994 5.40667 43.5406 4.9C44.2073 4.39333 44.994 4.02667 45.9006 3.8C46.8206 3.56 47.7406 3.44 48.6606 3.44C50.594 3.44 52.174 3.82667 53.4006 4.6C54.6406 5.36 55.554 6.46667 56.1406 7.92C56.7273 9.37333 57.0206 11.12 57.0206 13.16C57.0206 14.9733 56.8006 16.5467 56.3606 17.88C55.9206 19.2 55.3073 20.3133 54.5206 21.22C53.734 22.14 52.814 22.8867 51.7606 23.46C50.7206 24.0333 49.594 24.46 48.3806 24.74C47.1673 25.0333 45.9206 25.22 44.6406 25.3C43.2673 25.38 42.054 25.44 41.0006 25.48C39.9473 25.5333 38.994 25.5867 38.1406 25.64C37.3006 25.6933 36.5073 25.76 35.7606 25.84C35.014 25.92 34.2673 26.04 33.5206 26.2C32.774 26.36 31.974 26.5733 31.1206 26.84ZM63.7875 18.62C62.4675 18.62 61.3208 18.36 60.3475 17.84C59.3875 17.3067 58.6475 16.5467 58.1275 15.56C57.6075 14.56 57.3475 13.3733 57.3475 12C57.3475 9.96 57.6808 8.30667 58.3475 7.04C59.0275 5.77333 59.9475 4.85333 61.1075 4.28C62.2808 3.69333 63.6075 3.4 65.0875 3.4C66.4342 3.4 67.6142 3.66667 68.6275 4.2C68.7075 5.08 69.0408 5.79333 69.6275 6.34C70.2275 6.87333 70.9608 7.15333 71.8275 7.18C71.1342 6.92667 70.5542 6.50667 70.0875 5.92C69.6342 5.33333 69.4075 4.64667 69.4075 3.86C69.4075 3.32667 69.5475 2.80667 69.8275 2.3C70.1075 1.78 70.5675 1.34667 71.2075 1C71.8608 0.653333 72.7342 0.479999 73.8275 0.479999C74.8675 0.479999 75.7008 0.646666 76.3275 0.98C76.9542 1.3 77.4075 1.72667 77.6875 2.26C77.9808 2.79333 78.1342 3.36 78.1475 3.96C79.3208 3.96 80.4608 3.96 81.5675 3.96C82.6875 3.96 83.7342 3.94 84.7075 3.9C85.6942 3.86 86.5542 3.79333 87.2875 3.7C87.3808 4.07333 87.4475 4.52667 87.4875 5.06C87.5275 5.58 87.5408 6.12667 87.5275 6.7C87.5275 7.26 87.5008 7.78667 87.4475 8.28C87.4075 8.77333 87.3475 9.16667 87.2675 9.46H85.6075C85.6475 10.3933 85.7075 11.2333 85.7875 11.98C85.8675 12.7267 85.9475 13.4267 86.0275 14.08C86.1208 14.72 86.1942 15.36 86.2475 16C86.3142 16.64 86.3475 17.3267 86.3475 18.06C86.0275 18.1 85.5808 18.1333 85.0075 18.16C84.4475 18.2 83.8275 18.22 83.1475 18.22C82.4675 18.2333 81.7875 18.24 81.1075 18.24C80.4275 18.24 79.8008 18.2267 79.2275 18.2C78.6675 18.1733 78.2275 18.1333 77.9075 18.08V9.58H77.1675V18.08C76.8475 18.1333 76.4275 18.1733 75.9075 18.2C75.3875 18.24 74.8142 18.2667 74.1875 18.28C73.5742 18.2933 72.9542 18.2933 72.3275 18.28C71.7142 18.28 71.1475 18.2667 70.6275 18.24C70.1075 18.2133 69.6942 18.1733 69.3875 18.12C69.3475 17.8133 69.3275 17.44 69.3275 17C69.3275 16.56 69.3542 16.1867 69.4075 15.88C69.5542 15.4933 69.6675 15.06 69.7475 14.58C69.8408 14.1 69.8875 13.6067 69.8875 13.1C69.8875 11.9133 69.6608 11.0067 69.2075 10.38C68.7542 9.75333 68.0942 9.44 67.2275 9.44C67.0142 9.44 66.7808 9.46 66.5275 9.5C66.2875 9.52667 66.0342 9.58 65.7675 9.66L65.9275 10.24C66.0742 10.1867 66.2608 10.14 66.4875 10.1C66.7142 10.06 66.9208 10.04 67.1075 10.04C67.6942 10.04 68.1408 10.18 68.4475 10.46C68.7675 10.7267 68.9875 11.0933 69.1075 11.56C69.2275 12.0133 69.2875 12.5267 69.2875 13.1C69.2875 14.82 68.8208 16.1733 67.8875 17.16C66.9542 18.1333 65.5875 18.62 63.7875 18.62ZM65.1275 13.06H66.2075V11.84H65.1275V13.06Z" fill="black"/>
</svg>
